<svg width="40" height="40" viewBox="0 0 40 40" fill="none" xmlns="http://www.w3.org/2000/svg">
<rect width="40" height="40" rx="8" fill="#DCFCE7"/>
<path d="M23 14C23 13.1675 23.6675 12.5 24.5 12.5C25.3325 12.5 26 13.1675 26 14C26 14.8325 25.3325 15.5 24.5 15.5C23.6675 15.5 23 14.8325 23 14ZM26 26.75V23H26.8325C27.3425 23 27.7025 22.4975 27.545 22.01L25.97 17.2775C25.76 16.6625 25.19 16.25 24.545 16.25H24.455C23.81 16.25 23.2325 16.6625 23.03 17.2775L22.385 19.2125C23.195 19.6625 23.75 20.51 23.75 21.5V27.5H25.25C25.6625 27.5 26 27.1625 26 26.75ZM20.375 19.625C20.9975 19.625 21.5 19.1225 21.5 18.5C21.5 17.8775 20.9975 17.375 20.375 17.375C19.7525 17.375 19.25 17.8775 19.25 18.5C19.25 19.1225 19.7525 19.625 20.375 19.625ZM15.125 15.5C15.9575 15.5 16.625 14.8325 16.625 14C16.625 13.1675 15.9575 12.5 15.125 12.5C14.2925 12.5 13.625 13.1675 13.625 14C13.625 14.8325 14.2925 15.5 15.125 15.5ZM16.625 26.75V22.25H17C17.4125 22.25 17.75 21.9125 17.75 21.5V17.75C17.75 16.925 17.075 16.25 16.25 16.25H14C13.175 16.25 12.5 16.925 12.5 17.75V21.5C12.5 21.9125 12.8375 22.25 13.25 22.25H13.625V26.75C13.625 27.1625 13.9625 27.5 14.375 27.5H15.875C16.2875 27.5 16.625 27.1625 16.625 26.75ZM18.5 21.5V23.75C18.5 24.1625 18.8375 24.5 19.25 24.5V26.75C19.25 27.1625 19.5875 27.5 20 27.5H20.75C21.1625 27.5 21.5 27.1625 21.5 26.75V24.5C21.9125 24.5 22.25 24.1625 22.25 23.75V21.5C22.25 20.885 21.74 20.375 21.125 20.375H19.625C19.01 20.375 18.5 20.885 18.5 21.5Z" fill="#166534"/>
</svg>
