<svg width="32" height="32" viewBox="0 0 32 32" fill="none" xmlns="http://www.w3.org/2000/svg">
<rect width="32" height="32" rx="8" fill="#FCE7F3"/>
<path d="M21.3333 12H19.88C19.9533 11.7933 20 11.5667 20 11.3333C20 10.2267 19.1067 9.33334 18 9.33334C17.3 9.33334 16.6933 9.69334 16.3333 10.2333L16 10.68L15.6667 10.2267C15.3067 9.69334 14.7 9.33334 14 9.33334C12.8933 9.33334 12 10.2267 12 11.3333C12 11.5667 12.0467 11.7933 12.12 12H10.6667C9.92668 12 9.34001 12.5933 9.34001 13.3333L9.33334 20.6667C9.33334 21.4067 9.92668 22 10.6667 22H21.3333C22.0733 22 22.6667 21.4067 22.6667 20.6667V13.3333C22.6667 12.5933 22.0733 12 21.3333 12ZM18 10.6667C18.3667 10.6667 18.6667 10.9667 18.6667 11.3333C18.6667 11.7 18.3667 12 18 12C17.6333 12 17.3333 11.7 17.3333 11.3333C17.3333 10.9667 17.6333 10.6667 18 10.6667ZM14 10.6667C14.3667 10.6667 14.6667 10.9667 14.6667 11.3333C14.6667 11.7 14.3667 12 14 12C13.6333 12 13.3333 11.7 13.3333 11.3333C13.3333 10.9667 13.6333 10.6667 14 10.6667ZM21.3333 20.6667H10.6667V19.3333H21.3333V20.6667ZM21.3333 17.3333H10.6667V14C10.6667 13.6333 10.9667 13.3333 11.3333 13.3333H14.0533L13.0667 14.68C12.8467 14.98 12.9133 15.4 13.2133 15.6133C13.5067 15.8267 13.9267 15.76 14.14 15.4667L16 12.9333L17.86 15.4667C18.0733 15.76 18.4933 15.8267 18.7867 15.6133C19.0867 15.4 19.1533 14.98 18.9333 14.68L17.9467 13.3333H20.6667C21.0333 13.3333 21.3333 13.6333 21.3333 14V17.3333Z" fill="#9D174D"/>
</svg>
