<svg width="40" height="40" viewBox="0 0 40 40" fill="none" xmlns="http://www.w3.org/2000/svg">
<rect width="40" height="40" rx="8" fill="#DCFCE7"/>
<path d="M13.0925 22.085L13.025 22.0175C12.7325 21.725 12.7325 21.2525 13.025 20.96L17.5925 16.385C17.885 16.0925 18.3575 16.0925 18.65 16.385L21.1175 18.8525L25.91 13.4675C26.195 13.145 26.6975 13.1375 26.9975 13.4375C27.275 13.7225 27.29 14.1725 27.0275 14.465L21.65 20.5175C21.365 20.84 20.87 20.855 20.5625 20.5475L18.125 18.11L14.15 22.085C13.865 22.3775 13.385 22.3775 13.0925 22.085ZM14.15 26.585L18.125 22.61L20.5625 25.0475C20.87 25.355 21.365 25.34 21.65 25.0175L27.0275 18.965C27.29 18.6725 27.275 18.2225 26.9975 17.9375C26.6975 17.6375 26.195 17.645 25.91 17.9675L21.1175 23.3525L18.65 20.885C18.3575 20.5925 17.885 20.5925 17.5925 20.885L13.025 25.46C12.7325 25.7525 12.7325 26.225 13.025 26.5175L13.0925 26.585C13.385 26.8775 13.865 26.8775 14.15 26.585Z" fill="#166534"/>
</svg>
